<svg xmlns="http://www.w3.org/2000/svg" viewBox="0 0 112 112">
  <defs>
    <clipPath id="clip-path">
      <path fill="none" d="M88.56 97.17l-9.01-27.9 13.12-4.24 10.38 32.14H88.56z"/>
    </clipPath>
    <clipPath id="clip-path-2">
      <circle fill="none" cx="77.08" cy="22.51" r="5.17"/>
    </clipPath>
    <clipPath id="clip-path-3">
      <path fill="none" d="M67.52 42.87L32.18 59.84 18.02 37.21l30.71-24.37 18.79 30.03z"/>
    </clipPath>
  </defs>
  <g id="No_Results" data-name="No Results">
    <path d="M74 11.26h6.7a1.55 1.55 0 011.55 1.55v9.71h-9.78V12.8A1.55 1.55 0 0174 11.26z"/>
    <path stroke-width="3.45" stroke-miterlimit="10" stroke-linecap="round" stroke="#000" fill="none" d="M42.77 51.62l-17.71 49.09"/>
    <path stroke="#64676b" stroke-width="3.45" stroke-miterlimit="10" stroke-linecap="round" fill="none" d="M40.22 49.53l16.22 56.04"/>
    <g clip-path="url(#clip-path)">
      <path d="M88.56 97.17l-9.01-27.9 13.12-4.24 9.63 29.85-13.74 2.29z"/>
      <ellipse fill="#1876f2" cx="83.83" cy="88.48" rx="11.42" ry="17.96" transform="rotate(-14.08 83.82 88.493)"/>
    </g>
    <path fill="#64676b" d="M83.38 97.17h8.65l-4.87-4.27-3.78 4.27zm0 0h18.66v1.41H83.38zm7.7-58.39L77.77 70.84h20.36l7.21-30.15-14.26-1.91z"/>
    <path fill="#64676b" transform="rotate(-32.88 11.223 55.79)" d="M4.35 51.73h13.74v8.09H4.35z"/>
    <circle cx="5.92" cy="59.22" r="4.14"/>
    <circle fill="#a4a7ab" cx="25.31" cy="48.4" r="13.35"/>
    <g clip-path="url(#clip-path-2)">
      <circle fill="#1876f2" cx="77.08" cy="22.51" r="5.17"/>
      <path d="M70.43 18.67c.23.16 14.33 9 14.33 9l.42-11s-13.66-4.22-13.74-3.97-1.01 5.97-1.01 5.97z"/>
    </g>
    <g clip-path="url(#clip-path-3)">
      <path fill="#a4a7ab" d="M67.52 42.87L32.18 59.84 18.02 37.21l30.71-24.37 18.79 30.03z"/>
    </g>
    <rect fill="#a4a7ab" x="48.93" y="6.6" width="20.37" height="40.75" rx="1.39" transform="rotate(-32.88 59.128 26.97)"/>
    <path stroke-linejoin="round" stroke-width="8.62" stroke="#1877f2" stroke-linecap="round" fill="none" d="M82.25 35.33l-4.15 9.8-11.91-6.06"/>
    <path stroke-width="13.78" stroke="#1877f2" fill="#1876f2" stroke-miterlimit="10" d="M102.2 62.5v37.51"/>
    <path fill="#90c3ff" d="M92.43 31.72l-4.49 10.96-10.83-6.54 4.02-9.23 11.3 4.81z"/>
    <path fill="#a4a7ab" d="M108.93 36.81l-19.37 7 2.64 30.71h17.15V38.87a5.3 5.3 0 00-.42-2.06z"/>
    <path fill="#90c3ff" d="M106.67 34.29l-10.92-6.13-7.21-3.89a5.09 5.09 0 00-7.12 2.06L80.57 28a9.16 9.16 0 003.05 11.78l5.94 4L109 37a5.21 5.21 0 00-2.33-2.71zm-15.11 65.72h8.64l-4.86-4.27-3.78 4.27zm0 0h18.66v1.41H91.56z"/>
    <circle fill="#1876f2" cx="72.66" cy="24.97" r="1.22"/>
    <circle fill="#1876f2" cx="77.77" cy="22.74" r="1.88"/>
  </g>
</svg>
